/* XPM */
static char *_4111342330a438bae3e247b9e3682edRXxJyb4uGVrIGwlA[] = {
/* columns rows colors chars-per-pixel */
"32 32 9 1 ",
"  c None",
". c #2E1E22",
"X c #5C3000",
"o c #646466",
"O c #EB954E",
"+ c #FFAE68",
"@ c #B7B7BB",
"# c #D9D9DD",
"$ c white",
/* pixels */
"                 ooo            ",
"                o$$$o           ",
"                 oo#$o          ",
"                   o$o          ",
"                   o$o          ",
"                  o@#o          ",
"                  o#o           ",
"                 o#@o           ",
"                o#@o            ",
"              ooooo             ",
"             o@###@o            ",
"            o@#$$$#@o           ",
"           oo#$$$$$#oo          ",
"           o#o#####o#o          ",
"          o@O#ooooo#O@o         ",
"          o+O$o@#@o$O+o         ",
"         o@++$#$$$#$++@o        ",
"         o@#$$$$$$$$$#@o        ",
"         o#$$$$$$$$$$$#o        ",
"         o#$$$$$$$$$$$#o        ",
"         o#@oo#$$$#oo@#o        ",
"         o#o.#@$$$@#.o#o        ",
"         o@#XX#$$$#XX#@o        ",
"          o@#$$$$$$$#@o         ",
"          oo@#$@.@$#@oo         ",
"          o@oo@#@#@oo@o         ",
"          o@#@ooooo@@o          ",
"           o$$@o o@@@o          ",
"           o$$@o o@@o           ",
"           o#$#o  oo            ",
"            o$$o                ",
"                                "
};
